<svg width="108" height="19" viewBox="0 0 108 19" fill="none" xmlns="http://www.w3.org/2000/svg">
<path fill-rule="evenodd" clip-rule="evenodd" d="M16.3833 6.84202L11.0555 5.97552L8.67381 0.571374C8.60601 0.442297 8.48223 0.363037 8.34847 0.363037C8.2147 0.363037 8.09093 0.442297 8.02313 0.571374L5.6403 5.9743L0.311069 6.84202C0.174365 6.86411 0.0607138 6.97115 0.0178921 7.11814C-0.0249296 7.26513 0.010503 7.4266 0.109295 7.53465L3.9655 11.7416L3.05534 17.6816C3.03212 17.8339 3.08806 17.9877 3.19969 18.0786C3.31132 18.1694 3.45932 18.1815 3.58155 18.1098L8.3472 15.3055L13.1128 18.1085C13.2351 18.1803 13.3831 18.1682 13.4947 18.0773C13.6063 17.9865 13.6623 17.8326 13.6391 17.6804L12.7289 11.7416L16.5851 7.53465C16.6839 7.42665 16.7193 7.26526 16.6766 7.11829C16.6339 6.97132 16.5203 6.86423 16.3837 6.84202H16.3833Z" fill="#F5A623"/>
<path fill-rule="evenodd" clip-rule="evenodd" d="M39.0285 6.84202L33.7007 5.97552L31.319 0.571374C31.2511 0.442297 31.1274 0.363037 30.9936 0.363037C30.8598 0.363037 30.7361 0.442297 30.6683 0.571374L28.2854 5.9743L22.9562 6.84202C22.8195 6.86411 22.7059 6.97115 22.663 7.11814C22.6202 7.26513 22.6556 7.4266 22.7544 7.53465L26.6106 11.7416L25.7005 17.6816C25.6773 17.8339 25.7332 17.9877 25.8448 18.0786C25.9565 18.1694 26.1045 18.1815 26.2267 18.1098L30.9923 15.3055L35.758 18.1085C35.8802 18.1803 36.0282 18.1682 36.1398 18.0773C36.2515 17.9865 36.3074 17.8326 36.2842 17.6804L35.374 11.7416L39.2302 7.53465C39.329 7.42665 39.3645 7.26526 39.3218 7.11829C39.279 6.97132 39.1655 6.86423 39.0288 6.84202H39.0285Z" fill="#F5A623"/>
<path fill-rule="evenodd" clip-rule="evenodd" d="M61.6736 6.84202L56.3458 5.97552L53.9641 0.571374C53.8963 0.442297 53.7725 0.363037 53.6388 0.363037C53.505 0.363037 53.3812 0.442297 53.3134 0.571374L50.9306 5.9743L45.6014 6.84202C45.4646 6.86411 45.351 6.97115 45.3082 7.11814C45.2654 7.26513 45.3008 7.4266 45.3996 7.53465L49.2558 11.7416L48.3456 17.6816C48.3224 17.8339 48.3783 17.9877 48.49 18.0786C48.6016 18.1694 48.7496 18.1815 48.8718 18.1098L53.6375 15.3055L58.4031 18.1085C58.5254 18.1803 58.6734 18.1682 58.785 18.0773C58.8966 17.9865 58.9526 17.8326 58.9293 17.6804L58.0192 11.7416L61.8754 7.53465C61.9742 7.42665 62.0096 7.26526 61.9669 7.11829C61.9242 6.97132 61.8106 6.86423 61.674 6.84202H61.6736Z" fill="#F5A623"/>
<path fill-rule="evenodd" clip-rule="evenodd" d="M84.3189 6.84202L78.9911 5.97552L76.6094 0.571374C76.5416 0.442297 76.4178 0.363037 76.284 0.363037C76.1502 0.363037 76.0265 0.442297 75.9587 0.571374L73.5758 5.9743L68.2466 6.84202C68.1099 6.86411 67.9963 6.97115 67.9534 7.11814C67.9106 7.26513 67.946 7.4266 68.0448 7.53465L71.9011 11.7416L70.9909 17.6816C70.9677 17.8339 71.0236 17.9877 71.1352 18.0786C71.2469 18.1694 71.3949 18.1815 71.5171 18.1098L76.2827 15.3055L81.0484 18.1085C81.1706 18.1803 81.3186 18.1682 81.4303 18.0773C81.5419 17.9865 81.5978 17.8326 81.5746 17.6804L80.6644 11.7416L84.5206 7.53465C84.6194 7.42665 84.6549 7.26526 84.6122 7.11829C84.5694 6.97132 84.4559 6.86423 84.3192 6.84202H84.3189Z" fill="#F5A623"/>
<path fill-rule="evenodd" clip-rule="evenodd" d="M106.964 6.84202L101.636 5.97552L99.2544 0.571374C99.1866 0.442297 99.0628 0.363037 98.929 0.363037C98.7953 0.363037 98.6715 0.442297 98.6037 0.571374L96.2209 5.9743L90.8916 6.84202C90.7549 6.86411 90.6413 6.97115 90.5985 7.11814C90.5556 7.26513 90.5911 7.4266 90.6899 7.53465L94.5461 11.7416L93.6359 17.6816C93.6127 17.8339 93.6686 17.9877 93.7803 18.0786C93.8919 18.1694 94.0399 18.1815 94.1621 18.1098L98.9278 15.3055L103.693 18.1085C103.816 18.1803 103.964 18.1682 104.075 18.0773C104.187 17.9865 104.243 17.8326 104.22 17.6804L103.309 11.7416L107.166 7.53465C107.264 7.42665 107.3 7.26526 107.257 7.11829C107.214 6.97132 107.101 6.86423 106.964 6.84202H106.964Z" fill="#F5A623"/>
</svg>
